# xmcd
#
# Track frame offsets:
#	150
#	15085
#	33411
#	48532
#	63243
#	78193
#	92889
#	106599
#	122032
#	142306
#	158925
#	175815
#
# Disc length: 2941 seconds
#
# Revision: 1
# Processed by: cddbd v1.5.2PL0 Copyright (c) Steve Scherf et al.
# Submitted via: audiograbber 1.83.01
#
DISCID=920b7b0c
DTITLE=Little Boots - Hands
DYEAR=2009
DGENRE=Pop
TTITLE0=New In Town
TTITLE1=Earthquake
TTITLE2=Stuck On Repeat
TTITLE3=Click
TTITLE4=Remedy
TTITLE5=Meddle
TTITLE6=Ghost
TTITLE7=Mathematics
TTITLE8=Symmetry
TTITLE9=Tune Into My Heart
TTITLE10=Hearts Collide
TTITLE11=No Brakes
EXTD=
EXTT0=
EXTT1=
EXTT2=
EXTT3=
EXTT4=
EXTT5=
EXTT6=
EXTT7=
EXTT8=
EXTT9=
EXTT10=
EXTT11=
PLAYORDER=
